HIERARCHY
ROOT hip
{
  OFFSET 0 0 0
  CHANNELS 6 Xposition Yposition Zposition Zrotation Yrotation Xrotation
  JOINT abdomen
  {
    OFFSET 0 20.6881 -0.73152
    CHANNELS 3 Zrotation Xrotation Yrotation
    JOINT chest
    {
      OFFSET 0 11.7043 -0.48768
      CHANNELS 3 Zrotation Xrotation Yrotation
      JOINT neck
      {
        OFFSET 0 22.1894 -2.19456
        CHANNELS 3 Zrotation Xrotation Yrotation
        JOINT head
        {
          OFFSET -0.24384 7.07133 1.2192
          CHANNELS 3 Zrotation Xrotation Yrotation
          JOINT leftEye
          {
            OFFSET 4.14528 8.04674 8.04672
            CHANNELS 3 Zrotation Xrotation Yrotation
            End Site
            {
              OFFSET 1 0 0
            }
          }
          JOINT rightEye
          {
            OFFSET -3.6576 8.04674 8.04672
            CHANNELS 3 Zrotation Xrotation Yrotation
            End Site
            {
              OFFSET 1 0 0
            }
          }
        }
      }
      JOINT rCollar
      {
        OFFSET -2.68224 19.2634 -4.8768
        CHANNELS 3 Zrotation Xrotation Yrotation
        JOINT rShldr
        {
          OFFSET -8.77824 -1.95073 1.46304
          CHANNELS 3 Zrotation Xrotation Yrotation
          JOINT rForeArm
          {
            OFFSET -28.1742 -1.7115 0.48768
            CHANNELS 3 Zrotation Xrotation Yrotation
            JOINT rHand
            {
              OFFSET -22.5879 0.773209 7.07136
              CHANNELS 3 Zrotation Xrotation Yrotation
              JOINT rThumb1
              {
                OFFSET -1.2192 -0.487915 3.41376
                CHANNELS 3 Zrotation Xrotation Yrotation
                JOINT rThumb2
                {
                  OFFSET -3.37035 -0.52449 3.41376
                  CHANNELS 3 Zrotation Xrotation Yrotation
                  End Site
                  {
                    OFFSET -1.78271 -1.18214 1.43049
                  }
                }
              }
              JOINT rIndex1
              {
                OFFSET -7.75947 0.938293 5.60832
                CHANNELS 3 Zrotation Xrotation Yrotation
                JOINT rIndex2
                {
                  OFFSET -2.54057 -0.884171 1.56538
                  CHANNELS 3 Zrotation Xrotation Yrotation
                  End Site
                  {
                    OFFSET -1.62519 -0.234802 1.16502
                  }
                }
              }
              JOINT rMid1
              {
                OFFSET -8.24714 1.18213 3.41376
                CHANNELS 3 Zrotation Xrotation Yrotation
                JOINT rMid2
                {
                  OFFSET -3.10165 -0.590103 1.0647
                  CHANNELS 3 Zrotation Xrotation Yrotation
                  End Site
                  {
                    OFFSET -2.48547 -0.328903 0.83742
                  }
                }
              }
              JOINT rRing1
              {
                OFFSET -8.82822 0.546677 1.51678
                CHANNELS 3 Zrotation Xrotation Yrotation
                JOINT rRing2
                {
                  OFFSET -2.60934 -0.819778 -0.0198488
                  CHANNELS 3 Zrotation Xrotation Yrotation
                  End Site
                  {
                    OFFSET -2.33842 -0.294052 0.168128
                  }
                }
              }
              JOINT rPinky1
              {
                OFFSET -8.27202 -0.0477905 -0.4584
                CHANNELS 3 Zrotation Xrotation Yrotation
                JOINT rPinky2
                {
                  OFFSET -1.82734 -0.647385 -0.700984
                  CHANNELS 3 Zrotation Xrotation Yrotation
                  End Site
                  {
                    OFFSET -1.69225 -0.51767 -0.607171
                  }
                }
              }
            }
          }
        }
      }
      JOINT lCollar
      {
        OFFSET 2.68224 19.2634 -4.8768
        CHANNELS 3 Zrotation Xrotation Yrotation
        JOINT lShldr
        {
          OFFSET 8.77824 -1.95073 1.46304
          CHANNELS 3 Zrotation Xrotation Yrotation
          JOINT lForeArm
          {
            OFFSET 28.1742 -1.7115 0.48768
            CHANNELS 3 Zrotation Xrotation Yrotation
            JOINT lHand
            {
              OFFSET 22.5879 0.773209 7.07136
              CHANNELS 3 Zrotation Xrotation Yrotation
              JOINT lThumb1
              {
                OFFSET 1.2192 -0.487915 3.41376
                CHANNELS 3 Zrotation Xrotation Yrotation
                JOINT lThumb2
                {
                  OFFSET 3.37035 -0.52449 3.41376
                  CHANNELS 3 Zrotation Xrotation Yrotation
                  End Site
                  {
                    OFFSET 1.78271 -1.18214 1.43049
                  }
                }
              }
              JOINT lIndex1
              {
                OFFSET 7.75947 0.938293 5.60832
                CHANNELS 3 Zrotation Xrotation Yrotation
                JOINT lIndex2
                {
                  OFFSET 2.54057 -0.884171 1.56538
                  CHANNELS 3 Zrotation Xrotation Yrotation
                  End Site
                  {
                    OFFSET 1.62519 -0.234802 1.16502
                  }
                }
              }
              JOINT lMid1
              {
                OFFSET 8.24714 1.18213 3.41376
                CHANNELS 3 Zrotation Xrotation Yrotation
                JOINT lMid2
                {
                  OFFSET 3.10165 -0.590103 1.0647
                  CHANNELS 3 Zrotation Xrotation Yrotation
                  End Site
                  {
                    OFFSET 2.48547 -0.328903 0.83742
                  }
                }
              }
              JOINT lRing1
              {
                OFFSET 8.82822 0.546677 1.51678
                CHANNELS 3 Zrotation Xrotation Yrotation
                JOINT lRing2
                {
                  OFFSET 2.60934 -0.819778 -0.0198488
                  CHANNELS 3 Zrotation Xrotation Yrotation
                  End Site
                  {
                    OFFSET 2.33842 -0.294052 0.168128
                  }
                }
              }
              JOINT lPinky1
              {
                OFFSET 8.27202 -0.0477905 -0.4584
                CHANNELS 3 Zrotation Xrotation Yrotation
                JOINT lPinky2
                {
                  OFFSET 1.82734 -0.647385 -0.700984
                  CHANNELS 3 Zrotation Xrotation Yrotation
                  End Site
                  {
                    OFFSET 1.69225 -0.51767 -0.607171
                  }
                }
              }
            }
          }
        }
      }
    }
  }
  JOINT rButtock
  {
    OFFSET -8.77824 4.35084 1.2192
    CHANNELS 3 Zrotation Xrotation Yrotation
    JOINT rThigh
    {
      OFFSET 0 -1.70687 -2.19456
      CHANNELS 3 Zrotation Xrotation Yrotation
      JOINT rShin
      {
        OFFSET 0 -36.8199 0.73152
        CHANNELS 3 Zrotation Xrotation Yrotation
        JOINT rFoot
        {
          OFFSET 0.73152 -45.1104 -5.12064
          CHANNELS 3 Zrotation Xrotation Yrotation
          End Site
          {
            OFFSET -1.1221 -3.69964 12.103
          }
        }
      }
    }
  }
  JOINT lButtock
  {
    OFFSET 8.77824 4.35084 1.2192
    CHANNELS 3 Zrotation Xrotation Yrotation
    JOINT lThigh
    {
      OFFSET 0 -1.70687 -2.19456
      CHANNELS 3 Zrotation Xrotation Yrotation
      JOINT lShin
      {
        OFFSET 0 -36.8199 0.73152
        CHANNELS 3 Zrotation Xrotation Yrotation
        JOINT lFoot
        {
          OFFSET -0.73152 -45.1104 -5.12064
          CHANNELS 3 Zrotation Xrotation Yrotation
          End Site
          {
            OFFSET 1.1221 -3.69964 12.103
          }
        }
      }
    }
  }
}
MOTION
Frames:	4
Frame Time:	0.03333
0.012061046857184704 62.097177103358675 0.093883031215088 -2.7058610916137695 -3.2491164207458496 6.928749084472656 -2.651181221008301 13.93900203704834 4.052670955657959 2.7488229274749756 -9.329323768615723 1.487198829650879 -5.190961837768555 14.466869354248047 -3.336822032928467 9.007076263427734 -22.356081008911133 -4.842548370361328 -0.07925217598676682 0.059888504445552826 0.0030922088772058487 0.028043029829859734 0.09516029059886932 0.0995568037033081 0.3619422912597656 -0.11520358920097351 -0.037262700498104095 45.854793548583984 39.672855377197266 18.222145080566406 -25.811037063598633 -25.87535285949707 67.99002838134766 -1.6621838808059692 -9.275960922241211 -1.7362314462661743 -0.09533181041479111 -0.08599372953176498 -0.11059527099132538 0.002131340093910694 0.007833686657249928 -0.005686288699507713 -0.11215042322874069 -0.02283651940524578 -0.025245556607842445 7.832310199737549 5.421456813812256 0.38539254665374756 -0.14088162779808044 0.29572680592536926 -0.023530347272753716 2.892214059829712 0.911466121673584 -0.13100092113018036 -0.033436983823776245 0.019429175183176994 0.003983884584158659 10.315141677856445 0.8611604571342468 -0.18621119856834412 0.00995104480534792 0.025275368243455887 0.04735688120126724 2.2359211444854736 -0.7959849238395691 -0.3709667921066284 -0.060811325907707214 -0.048726923763751984 0.05224640294909477 -56.02169418334961 38.688751220703125 -24.252586364746094 25.13546371459961 -23.38561248779297 -64.5345687866211 2.018989324569702 -13.96640682220459 2.1899001598358154 0.08293136954307556 0.15679925680160522 -0.2574038803577423 -0.18593117594718933 -0.001795971766114235 0.10607748478651047 0.09552602469921112 -0.07380037754774094 0.1291387677192688 -7.763110160827637 5.356965065002441 -0.41819438338279724 -0.08216572552919388 0.04085478186607361 0.11248643696308136 -3.030930757522583 1.0563299655914307 -0.15425725281238556 -0.007929068058729172 0.0813404843211174 -0.060100700706243515 -10.381633758544922 0.660897970199585 -0.0417981892824173 -0.07820452749729156 0.07558298856019974 -0.04574602097272873 -2.288686513900757 -0.7915014028549194 0.15551292896270752 -0.05723278224468231 -0.02767251990735531 0.01661483570933342 -24.403493881225586 -44.99650955200195 -19.326265335083008 -1.4551161527633667 65.74356842041016 3.0346853733062744 -4.651658058166504 -11.539809226989746 -9.71865177154541 -0.07289380580186844 0.025700397789478302 -0.02446562983095646 29.52792739868164 -47.49369430541992 22.112518310546875 1.642680048942566 65.8489990234375 -2.7098400592803955 4.683611869812012 -12.26956558227539 12.96944808959961
0.027578062712690078 61.81315051691286 0.17320452600653194 -3.6073877811431885 0.6530470252037048 11.047013282775879 -2.485832691192627 14.767251968383789 4.208086013793945 2.490133285522461 -9.905383110046387 1.2990045547485352 -4.579367160797119 14.27564525604248 -3.422048807144165 8.580825805664062 -21.98610496520996 -5.021966457366943 0.126795694231987 -0.12290985137224197 -0.06798377633094788 0.07685896754264832 0.04701097682118416 -0.1264517903327942 -0.23948481678962708 0.024176957085728645 0.3231513798236847 46.52810287475586 39.886905670166016 18.577836990356445 -25.672466278076172 -26.890853881835938 69.33336639404297 -1.5191452503204346 -11.600379943847656 -1.4649035930633545 0.1154501885175705 -0.23276430368423462 -0.0282702948898077 -0.0009755486389622092 -0.05073334276676178 -0.016857171431183815 0.0709347128868103 -0.0004165078280493617 -0.03834110498428345 7.809351921081543 5.609150409698486 0.41496142745018005 -0.18898166716098785 -0.05666821822524071 -0.008766638115048409 2.7936511039733887 1.197545051574707 0.1749274581670761 0.08775641024112701 0.06959560513496399 -0.028432387858629227 10.284218788146973 0.43839266896247864 0.037097539752721786 0.07355533540248871 -0.12036450207233429 0.07103323936462402 2.0781090259552 -0.7569714784622192 -0.177206888794899 -0.13782384991645813 -0.0860762894153595 0.08455545455217361 -54.44341278076172 40.535400390625 -26.835859298706055 25.005420684814453 -23.516407012939453 -66.00531768798828 2.071089267730713 -14.091053009033203 2.0907485485076904 0.06668448448181152 -0.05830398574471474 0.35882169008255005 0.16655075550079346 -0.029400477185845375 -0.03277326375246048 0.10410211980342865 0.1871354877948761 -0.30275246500968933 -7.653279781341553 5.5869059562683105 -0.5894916653633118 0.015929624438285828 0.18720920383930206 -0.05278351530432701 -3.032686233520508 0.6345829963684082 -0.03168114274740219 0.2164941430091858 -0.06712058186531067 -0.14318758249282837 -9.9701509475708 0.952309787273407 -0.17579405009746552 0.02051357924938202 -0.0021748137660324574 0.10213308781385422 -2.290496349334717 -0.5809659957885742 0.05867312476038933 0.013029534369707108 -0.15635892748832703 0.03976861760020256 -24.96915054321289 -41.16269302368164 -19.588306427001953 -1.323935627937317 64.27069854736328 2.2680532932281494 -5.086781024932861 -11.605184555053711 -10.513784408569336 -0.2441713809967041 -0.014500659890472889 -0.021543480455875397 31.522794723510742 -43.303680419921875 22.253644943237305 1.02141273021698 67.68582153320312 -2.0497026443481445 5.158095359802246 -11.951034545898438 12.713335990905762
0.05177902376763198 64.41116323188896 0.5224078724420715 0.15245814621448517 8.259270668029785 4.030294895172119 -6.547321796417236 17.822721481323242 2.8415651321411133 3.3686530590057373 -10.568436622619629 0.1653182953596115 -5.261463165283203 14.879345893859863 -5.6260151863098145 8.654572486877441 -23.57900047302246 -8.159188270568848 -0.2229730486869812 0.016397317871451378 0.03049158863723278 -0.1479129195213318 0.26225966215133667 0.20408780872821808 0.04524970427155495 0.08289855718612671 0.036320094019174576 41.029136657714844 30.052059173583984 26.4322566986084 -25.63103675842285 -30.13287925720215 74.12067413330078 -1.919922113418579 -16.90949058532715 -2.8989861011505127 -0.18561168015003204 -0.14841347932815552 -0.1331648826599121 -0.0655694529414177 0.05117051303386688 -0.2665809392929077 -0.22526463866233826 0.04938627779483795 0.05346714332699776 7.7103190422058105 5.4110894203186035 0.11116404086351395 0.14544403553009033 -0.0636788085103035 -0.10437201708555222 2.6039276123046875 0.9685273170471191 -0.391046941280365 -0.017948072403669357 0.13062293827533722 -0.19840140640735626 10.28414249420166 0.6541030406951904 -0.24731852114200592 -0.06890764832496643 -0.24681885540485382 0.24329131841659546 2.123757839202881 -0.8171022534370422 -0.5116719007492065 -0.24229924380779266 0.04751249775290489 0.06320054829120636 -49.050689697265625 43.908512115478516 -31.559240341186523 25.932926177978516 -27.852149963378906 -70.3367919921875 2.3927817344665527 -21.90784454345703 3.416635751724243 -0.19110703468322754 0.16064414381980896 -0.2606218159198761 -0.18742620944976807 -0.06290493905544281 0.03472830727696419 0.3496949076652527 -0.051897745579481125 0.16255256533622742 -7.867160320281982 5.677708625793457 -0.49265211820602417 0.262683629989624 0.03454049676656723 0.526137113571167 -3.0102336406707764 0.7543409466743469 -0.09286687523126602 -0.04447390139102936 -0.006107700057327747 -0.31605222821235657 -10.391260147094727 0.6476923227310181 0.05810267850756645 0.1226138100028038 0.17441995441913605 0.25275859236717224 -2.5036208629608154 -0.5738464593887329 0.16714797914028168 -0.11657658219337463 0.18483054637908936 0.14810775220394135 -40.16728591918945 -54.26683807373047 -33.32456588745117 -4.099983215332031 77.97724151611328 4.587020397186279 -1.277963399887085 -5.766505241394043 -1.3967406749725342 0.2780425548553467 0.03900774195790291 0.4047355651855469 21.913862228393555 -31.57831382751465 16.09210205078125 0.725037157535553 62.34262466430664 -2.5907974243164062 7.686001300811768 -13.680743217468262 19.20840072631836
0.17158491739959267 69.38003706061403 1.5360730455124905 2.6014115810394287 21.030803680419922 0.9624936580657959 -10.866950035095215 21.35097885131836 1.6379215717315674 4.291109085083008 -12.218392372131348 -0.5614834427833557 -5.25159215927124 14.44233226776123 -6.228193283081055 9.292354583740234 -23.458232879638672 -10.36091136932373 -0.238387331366539 0.17651115357875824 -0.09506139159202576 0.2663174271583557 0.568069577217102 0.1445046365261078 0.11475974321365356 0.13956435024738312 0.02791188284754753 41.71772384643555 13.136591911315918 32.22315216064453 -28.559789657592773 -43.55921936035156 88.10002899169922 -2.8946011066436768 -39.58721923828125 -6.992383003234863 -0.015893986448645592 -0.27704232931137085 -0.19685781002044678 -0.33245089650154114 -0.3083307445049286 0.1894950419664383 0.7019295692443848 -0.04618103802204132 -0.05765767768025398 8.047433853149414 5.689126014709473 0.31724637746810913 -0.32180750370025635 0.2250228077173233 -0.27741074562072754 2.884244203567505 0.8831864595413208 -0.07945915311574936 0.23516754806041718 0.08624852448701859 -0.3071317672729492 10.215534210205078 0.650029182434082 0.3159288167953491 0.3468809723854065 -0.14645063877105713 0.5290393233299255 2.587834358215332 -0.9614250063896179 -0.4604281187057495 -0.24654965102672577 0.06845184415578842 0.8305525183677673 -34.91484451293945 42.10675048828125 -46.75205612182617 28.15213966369629 -33.547969818115234 -75.44474792480469 1.64230477809906 -22.801918029785156 3.533936023712158 -0.6861716508865356 -0.011068124324083328 -0.6582013964653015 -0.10522478818893433 -0.26479122042655945 -0.12389408051967621 0.06139659881591797 0.02482730522751808 -0.6873224973678589 -7.45692777633667 5.9998674392700195 -0.38802486658096313 -0.08051962405443192 0.11793804913759232 0.5643840432167053 -3.3595290184020996 0.3034753203392029 0.33183935284614563 -0.0968700498342514 -0.35970136523246765 -0.8563487529754639 -10.495795249938965 0.6890833973884583 -0.045134223997592926 0.36115938425064087 0.016453363001346588 0.06221006438136101 -1.9478166103363037 -0.7399195432662964 0.2803336977958679 0.2910059988498688 -0.4824175238609314 0.2514437437057495 -81.06871795654297 -59.330204010009766 -75.57865905761719 -172.74403381347656 82.38134765625 173.340576171875 1.0716615915298462 2.645256996154785 7.305083274841309 0.4280967116355896 0.35977622866630554 0.13986919820308685 15.322409629821777 -19.29802131652832 15.628730773925781 1.0898146629333496 61.77339172363281 -3.2220020294189453 10.776432991027832 -17.430877685546875 27.12460708618164
